<svg
  width="33"
  height="32"
  viewBox="0 0 33 32"
  fill="none"
  xmlns="http://www.w3.org/2000/svg"
>
  <g clip-path="url(#clip0_21_4)">
    <path
      d="M8.25 32H24.75V5.21429C24.75 3.43973 23.3643 2 21.6562 2H11.3438C9.63574 2 8.25 3.43973 8.25 5.21429V32ZM12.375 6.28571H20.625V8.42857H12.375V6.28571ZM33 11.6429V28.7857C33 30.5603 31.6143 32 29.9062 32H26.8125V8.42857H29.9062C31.6143 8.42857 33 9.8683 33 11.6429ZM6.1875 32H3.09375C1.38574 32 0 30.5603 0 28.7857V11.6429C0 9.8683 1.38574 8.42857 3.09375 8.42857H6.1875V32Z"
      fill="black"
    />
  </g>
  <defs>
    <clipPath id="clip0_21_4">
      <rect width="32" height="32" fill="white" transform="translate(0.5)" />
    </clipPath>
  </defs>
</svg>
